<?xml version="1.0" encoding="UTF-8"?> <svg xmlns="http://www.w3.org/2000/svg" width="403" height="25" viewBox="0 0 403 25" fill="none"><g clip-path="url(#clip0_1860_83)"><g clip-path="url(#clip1_1860_83)"><g clip-path="url(#clip2_1860_83)"><path d="M180.414 0.330566H0.414062V4.33057H180.414V0.330566Z" fill="white"></path><path d="M180.414 20.3306H0.414062V24.3306H180.414V20.3306Z" fill="white"></path><path d="M402.414 0.330566H222.414V4.33057H402.414V0.330566Z" fill="white"></path><path d="M402.414 20.3306H222.414V24.3306H402.414V20.3306Z" fill="white"></path><path d="M201.414 17.3306C204.175 17.3306 206.414 15.092 206.414 12.3306C206.414 9.56914 204.175 7.33057 201.414 7.33057C198.653 7.33057 196.414 9.56914 196.414 12.3306C196.414 15.092 198.653 17.3306 201.414 17.3306Z" fill="white"></path></g></g></g><defs><clipPath id="clip0_1860_83"><rect width="402" height="24" fill="white" transform="translate(0.414062 0.330566)"></rect></clipPath><clipPath id="clip1_1860_83"><rect width="402" height="24" fill="white" transform="translate(0.414062 0.330566)"></rect></clipPath><clipPath id="clip2_1860_83"><rect width="402" height="24" fill="white" transform="translate(0.414062 0.330566)"></rect></clipPath></defs></svg> 